<svg width="80" height="81" viewBox="0 0 80 81" fill="none" xmlns="http://www.w3.org/2000/svg">
<g clip-path="url(#clip0_21_527)">
<path opacity="0.978" fill-rule="evenodd" clip-rule="evenodd" d="M16.9531 0.911133C32.2656 0.911133 47.5781 0.911133 62.8906 0.911133C64.1527 1.36655 64.96 2.25197 65.3125 3.56738C65.4167 7.16113 65.4167 10.7549 65.3125 14.3486C64.8909 15.9157 63.8753 16.8272 62.2656 17.083C47.3699 17.1872 32.4739 17.1872 17.5781 17.083C15.9684 16.8272 14.9528 15.9157 14.5313 14.3486C14.4271 10.7549 14.4271 7.16113 14.5313 3.56738C14.8838 2.25197 15.6911 1.36655 16.9531 0.911133ZM23.8281 6.69238C26.0578 6.82768 26.8652 7.97351 26.25 10.1299C25.3755 11.2707 24.3077 11.5051 23.0469 10.833C22.0361 9.91662 21.8538 8.8489 22.5 7.62988C22.8628 7.17749 23.3055 6.86499 23.8281 6.69238ZM33.2031 6.69238C40.8075 6.66634 48.4116 6.69238 56.0156 6.77051C57.5913 7.39659 58.0859 8.51638 57.5 10.1299C57.1463 10.5882 56.7034 10.9268 56.1719 11.1455C48.4636 11.2497 40.7552 11.2497 33.0469 11.1455C31.4719 10.3787 31.0813 9.20679 31.875 7.62988C32.2378 7.17749 32.6805 6.86499 33.2031 6.69238Z" fill="#F44336"/>
<path opacity="0.991" fill-rule="evenodd" clip-rule="evenodd" d="M4.45313 10.7549C6.27605 10.7549 8.09896 10.7549 9.92188 10.7549C9.61831 13.2257 10.0089 15.5694 11.0938 17.7861C12.21 19.5022 13.7465 20.648 15.7031 21.2236C15.7552 23.5177 15.703 25.8092 15.5469 28.0986C12.4843 29.2602 10.6354 31.4477 10 34.6611C9.89583 38.4631 9.89583 42.2653 10 46.0674C10.6716 49.3427 12.5727 51.5563 15.7031 52.708C16.3191 52.8631 16.9441 52.9674 17.5781 53.0205C32.4739 53.1247 47.3698 53.1247 62.2656 53.0205C65.4611 52.6877 67.7789 51.0991 69.2188 48.2549C69.5241 47.5547 69.7323 46.8255 69.8438 46.0674C69.948 42.2653 69.948 38.4631 69.8438 34.6611C69.2133 31.4519 67.3642 29.2644 64.2969 28.0986C64.1408 25.8092 64.0886 23.5177 64.1406 21.2236C67.3064 20.1621 69.2075 17.9746 69.8438 14.6611C69.9219 13.3601 69.9478 12.058 69.9219 10.7549C71.7455 10.7289 73.5684 10.7549 75.3906 10.833C76.0417 11.0674 76.4844 11.5101 76.7188 12.1611C76.7969 28.8277 76.823 45.4944 76.7969 62.1611C69.502 62.0919 62.2103 62.17 54.9219 62.3955C51.8303 62.9252 49.2781 64.3836 47.2656 66.7705C42.3698 66.8747 37.4739 66.8747 32.5781 66.7705C30.5656 64.3836 28.0134 62.9252 24.9219 62.3955C17.6334 62.17 10.3418 62.0919 3.04688 62.1611C3.02083 45.4944 3.04688 28.8277 3.125 12.1611C3.38872 11.5072 3.83144 11.0384 4.45313 10.7549ZM23.8281 38.0986C26.1681 38.2999 26.9234 39.4977 26.0938 41.6924C24.8958 42.9424 23.698 42.9424 22.5 41.6924C21.7203 40.025 22.1631 38.8272 23.8281 38.0986ZM33.2031 38.0986C40.8075 38.0725 48.4116 38.0986 56.0156 38.1767C57.7022 38.8689 58.145 40.0408 57.3438 41.6924C57.0156 42.156 56.5728 42.4424 56.0156 42.5517C48.4114 42.656 40.8073 42.656 33.2031 42.5517C31.5166 41.8596 31.0738 40.6877 31.875 39.0361C32.2378 38.5838 32.6805 38.2713 33.2031 38.0986Z" fill="#627F8D"/>
<path opacity="0.987" fill-rule="evenodd" clip-rule="evenodd" d="M20.2344 21.6924C33.3594 21.6924 46.4844 21.6924 59.6094 21.6924C59.6094 23.6716 59.6094 25.6507 59.6094 27.6299C46.4844 27.6299 33.3594 27.6299 20.2344 27.6299C20.2344 25.6507 20.2344 23.6716 20.2344 21.6924Z" fill="#FFC107"/>
<path opacity="0.968" fill-rule="evenodd" clip-rule="evenodd" d="M17.8906 32.1611C32.8953 32.0852 47.8953 32.1633 62.8906 32.3955C64.1822 32.8016 64.9894 33.661 65.3125 34.9736C65.4167 38.5674 65.4167 42.1611 65.3125 45.7549C64.8897 47.3235 63.8741 48.2349 62.2656 48.4893C47.1039 48.6436 31.9477 48.5916 16.7969 48.333C15.5951 47.8607 14.8399 47.0013 14.5313 45.7549C14.4271 42.1611 14.4271 38.5674 14.5313 34.9736C15.0327 33.28 16.1525 32.3425 17.8906 32.1611ZM23.8281 38.0986C22.1631 38.8272 21.7203 40.025 22.5 41.6924C23.698 42.9424 24.8958 42.9424 26.0938 41.6924C26.9234 39.4977 26.1681 38.2999 23.8281 38.0986ZM33.2031 38.0986C32.6805 38.2713 32.2378 38.5838 31.875 39.0361C31.0738 40.6877 31.5166 41.8596 33.2031 42.5518C40.8073 42.656 48.4114 42.656 56.0156 42.5518C56.5728 42.4424 57.0156 42.156 57.3438 41.6924C58.145 40.0408 57.7022 38.8689 56.0156 38.1768C48.4116 38.0986 40.8075 38.0725 33.2031 38.0986Z" fill="#F44336"/>
<path opacity="0.995" fill-rule="evenodd" clip-rule="evenodd" d="M79.9219 68.2549C79.9219 69.9216 79.9219 71.5882 79.9219 73.2549C78.8802 77.3174 76.3281 79.8695 72.2656 80.9112C50.7031 80.9112 29.1406 80.9112 7.57812 80.9112C3.51562 79.8695 0.963542 77.3174 -0.078125 73.2549C-0.078125 71.5882 -0.078125 69.9216 -0.078125 68.2549C0.205439 67.6332 0.674189 67.1905 1.32812 66.9268C9.08855 66.8226 16.8489 66.8226 24.6094 66.9268C25.6916 67.131 26.6812 67.5477 27.5781 68.1768C28.512 69.0588 29.3973 69.9963 30.2344 70.9893C30.4427 71.0935 30.6511 71.1976 30.8594 71.3018C33.8747 71.478 36.8955 71.5562 39.9219 71.5362C42.9483 71.5562 45.9691 71.478 48.9844 71.3018C49.1927 71.1976 49.4011 71.0935 49.6094 70.9893C50.4464 69.9963 51.3317 69.0588 52.2656 68.1768C53.1625 67.5477 54.1522 67.131 55.2344 66.9268C62.9948 66.8226 70.7552 66.8226 78.5156 66.9268C79.1695 67.1905 79.6383 67.6332 79.9219 68.2549Z" fill="#627F8D"/>
<rect x="31.25" y="37.9893" width="27.75" height="5.13889" rx="2.56944" fill="white"/>
<rect x="31.25" y="37.9893" width="27.75" height="5.13889" rx="2.56944" fill="white"/>
<circle cx="24.5694" cy="40.5587" r="2.56944" fill="white"/>
<circle cx="24.5694" cy="40.5587" r="2.56944" fill="white"/>
<rect x="31.25" y="5.98926" width="27.75" height="5.13889" rx="2.56944" fill="white"/>
<rect x="31.25" y="5.98926" width="27.75" height="5.13889" rx="2.56944" fill="white"/>
<circle cx="24.5694" cy="8.5587" r="2.56944" fill="white"/>
<circle cx="24.5694" cy="8.5587" r="2.56944" fill="white"/>
</g>
<defs>
<clipPath id="clip0_21_527">
<rect width="80" height="80" fill="white" transform="translate(0 0.989258)"/>
</clipPath>
</defs>
</svg>
