<svg width="80" height="81" viewBox="0 0 80 81" fill="none" xmlns="http://www.w3.org/2000/svg">
<g clip-path="url(#clip0_21_516)">
<path opacity="0.995" fill-rule="evenodd" clip-rule="evenodd" d="M13.2031 0.893921C31.0156 0.893921 48.8281 0.893921 66.6406 0.893921C67.2623 1.17748 67.705 1.64623 67.9688 2.30017C68.0469 8.13326 68.073 13.9666 68.0469 19.8002C49.2969 19.8002 30.5469 19.8002 11.7969 19.8002C11.7708 13.9666 11.7969 8.13326 11.875 2.30017C12.1387 1.64623 12.5814 1.17748 13.2031 0.893921ZM20.3906 8.23767C22.6019 8.02697 23.5655 9.01655 23.2813 11.2064C22.3648 12.7293 21.1408 13.0158 19.6094 12.0658C18.5791 10.5056 18.8395 9.22952 20.3906 8.23767ZM29.7656 8.23767C31.9769 8.02697 32.9405 9.01655 32.6563 11.2064C31.7398 12.7293 30.5158 13.0158 28.9844 12.0658C27.9541 10.5056 28.2145 9.22952 29.7656 8.23767ZM39.1406 8.23767C41.3519 8.02697 42.3155 9.01655 42.0313 11.2064C41.1148 12.7293 39.8908 13.0158 38.3594 12.0658C37.3291 10.5056 37.5895 9.22952 39.1406 8.23767Z" fill="#FFC107"/>
<path opacity="0.998" fill-rule="evenodd" clip-rule="evenodd" d="M79.9219 11.8314C79.9219 29.6439 79.9219 47.4564 79.9219 65.2689C79.6383 65.8906 79.1695 66.3333 78.5156 66.597C52.7864 66.7012 27.0573 66.7012 1.32812 66.597C0.674189 66.3333 0.205439 65.8906 -0.078125 65.2689C-0.078125 47.4564 -0.078125 29.6439 -0.078125 11.8314C0.205439 11.2097 0.674189 10.767 1.32812 10.5033C3.2545 10.4252 5.18159 10.3991 7.10938 10.4252C7.08333 23.7066 7.10938 36.9878 7.1875 50.2689C7.6302 54.4616 9.94792 56.7794 14.1406 57.222C31.3281 57.3262 48.5156 57.3262 65.7031 57.222C69.8958 56.7794 72.2136 54.4616 72.6562 50.2689C72.7344 36.9878 72.7605 23.7066 72.7344 10.4252C74.6622 10.3991 76.5892 10.4252 78.5156 10.5033C79.1695 10.767 79.6383 11.2097 79.9219 11.8314ZM21.1719 29.1752C25.8597 29.1491 30.5472 29.1752 35.2344 29.2533C36.2559 29.3073 36.9591 29.8022 37.3438 30.7377C37.6234 32.4459 36.9203 33.4616 35.2344 33.7845C30.5469 33.8888 25.8594 33.8888 21.1719 33.7845C19.0959 33.3044 18.497 32.0805 19.375 30.1127C19.8919 29.6072 20.4908 29.2947 21.1719 29.1752ZM43.8281 29.3314C44.3516 29.3056 44.8723 29.3317 45.3906 29.4095C50.0781 30.972 54.7656 32.5345 59.4531 34.097C60.9109 34.9223 61.2494 36.0942 60.4688 37.6127C59.3727 38.6827 58.305 39.7764 57.2656 40.8939C58.305 42.0114 59.3727 43.1052 60.4688 44.1752C61.0839 45.3422 60.9538 46.41 60.0781 47.3783C59.1406 47.8991 58.2031 47.8991 57.2656 47.3783C56.1956 46.2822 55.1019 45.2145 53.9844 44.1752C52.8669 45.2145 51.7731 46.2822 50.7031 47.3783C49.5361 47.9934 48.4683 47.8633 47.5 46.9877C45.7716 42.1152 44.105 37.2192 42.5 32.3002C42.1869 30.9486 42.6297 29.9591 43.8281 29.3314ZM21.1719 38.5502C25.8597 38.5241 30.5472 38.5502 35.2344 38.6283C36.2559 38.6823 36.9591 39.1772 37.3438 40.1127C37.6234 41.8209 36.9203 42.8366 35.2344 43.1595C30.5469 43.2637 25.8594 43.2637 21.1719 43.1595C19.0959 42.6794 18.497 41.4555 19.375 39.4877C19.8919 38.9822 20.4908 38.6697 21.1719 38.5502Z" fill="#627F8D"/>
<path opacity="0.992" fill-rule="evenodd" clip-rule="evenodd" d="M11.7969 24.4877C30.5469 24.4877 49.2969 24.4877 68.0469 24.4877C68.073 33.3941 68.0469 42.3003 67.9688 51.2064C67.7344 51.8575 67.2917 52.3002 66.6406 52.5345C48.8281 52.6388 31.0156 52.6388 13.2031 52.5345C12.5521 52.3002 12.1094 51.8575 11.875 51.2064C11.7969 42.3003 11.7708 33.3941 11.7969 24.4877ZM21.1719 29.1752C20.4908 29.2947 19.8919 29.6072 19.375 30.1127C18.497 32.0805 19.0959 33.3044 21.1719 33.7845C25.8594 33.8888 30.5469 33.8888 35.2344 33.7845C36.9203 33.4616 37.6234 32.446 37.3438 30.7377C36.9591 29.8022 36.2559 29.3074 35.2344 29.2533C30.5472 29.1752 25.8597 29.1491 21.1719 29.1752ZM43.8281 29.3314C42.6297 29.9591 42.1869 30.9486 42.5 32.3002C44.105 37.2192 45.7716 42.1152 47.5 46.9877C48.4683 47.8633 49.5361 47.9935 50.7031 47.3783C51.7731 46.2822 52.8669 45.2145 53.9844 44.1752C55.1019 45.2145 56.1956 46.2822 57.2656 47.3783C58.2031 47.8991 59.1406 47.8991 60.0781 47.3783C60.9538 46.41 61.0839 45.3422 60.4688 44.1752C59.3727 43.1052 58.305 42.0114 57.2656 40.8939C58.305 39.7764 59.3727 38.6827 60.4688 37.6127C61.2494 36.0942 60.9109 34.9224 59.4531 34.097C54.7656 32.5345 50.0781 30.972 45.3906 29.4095C44.8723 29.3317 44.3516 29.3056 43.8281 29.3314ZM21.1719 38.5502C20.4908 38.6697 19.8919 38.9822 19.375 39.4877C18.497 41.4555 19.0959 42.6794 21.1719 43.1595C25.8594 43.2638 30.5469 43.2638 35.2344 43.1595C36.9203 42.8366 37.6234 41.821 37.3438 40.1127C36.9591 39.1772 36.2559 38.6824 35.2344 38.6283C30.5472 38.5502 25.8597 38.5241 21.1719 38.5502Z" fill="#F44336"/>
<path opacity="0.904" fill-rule="evenodd" clip-rule="evenodd" d="M46 32.972C49.3552 34.021 52.6888 35.146 56 36.347C53.7917 38.5553 51.5833 40.7638 49.375 42.972C48.174 39.6608 47.049 36.3273 46 32.972Z" fill="white"/>
<path opacity="0.996" fill-rule="evenodd" clip-rule="evenodd" d="M59.6093 80.8939C46.4843 80.8939 33.3593 80.8939 20.2343 80.8939C18.8353 80.0592 18.4446 78.8614 19.0624 77.3002C19.2448 76.9095 19.5312 76.6231 19.9218 76.4408C22.6676 76.2106 25.4279 76.1325 28.2031 76.2064C28.2031 74.5919 28.2031 72.9772 28.2031 71.3627C36.0156 71.3627 43.8281 71.3627 51.6406 71.3627C51.6406 72.9772 51.6406 74.5919 51.6406 76.2064C54.4157 76.1325 57.176 76.2106 59.9218 76.4408C60.7174 76.9122 61.0821 77.6153 61.0156 78.5502C60.9932 79.6113 60.5245 80.3925 59.6093 80.8939Z" fill="#617E8C"/>
<rect x="18" y="28.972" width="21.3333" height="5.33333" rx="2.66667" fill="white"/>
<rect x="18" y="37.972" width="21.3333" height="5.33333" rx="2.66667" fill="white"/>
</g>
<defs>
<clipPath id="clip0_21_516">
<rect width="80" height="80" fill="white" transform="translate(0 0.972046)"/>
</clipPath>
</defs>
</svg>
