<svg width="80" height="81" viewBox="0 0 80 81" fill="none" xmlns="http://www.w3.org/2000/svg">
<g clip-path="url(#clip0_21_495)">
<path opacity="0.995" fill-rule="evenodd" clip-rule="evenodd" d="M21.1719 0.713989C33.6719 0.713989 46.1719 0.713989 58.6719 0.713989C62.7411 2.17912 64.4078 5.09579 63.6719 9.46399C47.8386 9.46399 32.0051 9.46399 16.1719 9.46399C15.436 5.09579 17.1026 2.17912 21.1719 0.713989Z" fill="#607D8B"/>
<path opacity="0.969" fill-rule="evenodd" clip-rule="evenodd" d="M16.1719 13.9952C32.0052 13.9952 47.8386 13.9952 63.6719 13.9952C63.6719 15.6098 63.6719 17.2245 63.6719 18.839C47.8386 18.839 32.0052 18.839 16.1719 18.839C16.1719 17.2245 16.1719 15.6098 16.1719 13.9952Z" fill="#FFC107"/>
<path opacity="0.992" fill-rule="evenodd" clip-rule="evenodd" d="M11.6406 23.5265C30.6116 23.449 49.57 23.5271 68.5156 23.7609C68.9802 24.0367 69.3188 24.4273 69.5313 24.9328C69.6866 36.6121 69.6344 48.2788 69.375 59.9328C69.0992 60.3973 68.7086 60.7359 68.2031 60.9484C49.2322 61.104 30.2739 61.052 11.3281 60.7921C10.8636 60.5163 10.5251 60.1257 10.3125 59.6203C10.2083 48.0578 10.2083 36.4953 10.3125 24.9328C10.5762 24.2788 11.0189 23.8101 11.6406 23.5265ZM41.3281 31.4953C43.6089 31.3167 44.5723 32.3584 44.2188 34.6203C42.7361 40.2907 41.2777 45.9678 39.8438 51.6515C39.253 52.871 38.2895 53.3137 36.9531 52.9796C36.0714 52.5137 35.5505 51.7845 35.3906 50.7921C36.925 44.8335 38.4616 38.8699 40 32.9015C40.2638 32.2476 40.7064 31.7788 41.3281 31.4953ZM29.2969 35.089C31.6369 35.2903 32.3922 36.4881 31.5625 38.6828C30.3623 39.8568 29.1905 41.0548 28.0469 42.2765C29.1905 43.4982 30.3623 44.6962 31.5625 45.8703C32.3777 47.7815 31.7788 48.9795 29.7656 49.464C29.3244 49.4124 28.9077 49.2821 28.5156 49.0734C26.6667 47.2245 24.8177 45.3754 22.9688 43.5265C22.448 42.6932 22.448 41.8598 22.9688 41.0265C24.8177 39.1776 26.6667 37.3285 28.5156 35.4796C28.7992 35.3613 29.0595 35.2312 29.2969 35.089ZM49.6094 35.089C50.2203 35.052 50.7933 35.1821 51.3281 35.4796C53.177 37.3285 55.0261 39.1776 56.875 41.0265C57.3958 41.8598 57.3958 42.6932 56.875 43.5265C55.0261 45.3754 53.177 47.2245 51.3281 49.0734C49.417 49.8368 48.2713 49.2118 47.8906 47.1984C47.8639 46.7095 47.9941 46.2667 48.2813 45.8703C49.4814 44.6962 50.6533 43.4982 51.7969 42.2765C50.6533 41.0548 49.4814 39.8568 48.2813 38.6828C47.5016 37.0154 47.9444 35.8176 49.6094 35.089Z" fill="#F44336"/>
<path opacity="0.995" fill-rule="evenodd" clip-rule="evenodd" d="M58.6719 80.714C46.1719 80.714 33.6719 80.714 21.1719 80.714C18.5702 80.0131 16.9296 78.3465 16.25 75.714C16.1719 72.381 16.1458 69.0477 16.1719 65.714C32.0052 65.714 47.8386 65.714 63.6719 65.714C63.698 69.0477 63.6719 72.381 63.5938 75.714C62.9142 78.3465 61.2736 80.0131 58.6719 80.714ZM35.8594 69.7765C38.7847 69.7065 41.7013 69.7846 44.6094 70.0109C46.0883 70.7495 46.4789 71.8693 45.7813 73.3702C45.31 73.9315 44.7111 74.2699 43.9844 74.3859C41.0596 74.534 38.1428 74.4818 35.2344 74.2296C33.7555 73.491 33.3649 72.3712 34.0625 70.8702C34.5664 70.3201 35.1653 69.9556 35.8594 69.7765Z" fill="#607D8B"/>
</g>
<defs>
<clipPath id="clip0_21_495">
<rect width="80" height="80" fill="none" transform="translate(0 0.792114)"/>
</clipPath>
</defs>
</svg>
